<svg xmlns="http://www.w3.org/2000/svg" viewBox="0 0 750 500"><g id="freepik--Floor--inject-54"><line x1="32.491" y1="457.5169" x2="714.40769" y2="457.5169" style="fill:none; stroke:#263238; stroke-linecap:round; stroke-linejoin:round;"></line></g><g id="freepik--Car--inject-54"><g><path d="M601.48949,395.5517h-10.9077l-.1564,.2298c-.9259-.139-1.8633-.2298-2.8182-.2298-13.2988,0-24.0798,13.8715-24.0798,30.9825s10.781,30.9827,24.0798,30.9827c.9549,0,8.85-.0908,9.77581-.2299l-6.80121,.2299h10.9077c13.2987,0,24.0797-13.8713,24.0797-30.9827s-10.781-30.9825-24.0797-30.9825Z" style="fill:#263238; stroke:#263238; stroke-linecap:round; stroke-linejoin:round;"></path><path d="M378.07329,395.5517h-10.9074l-.1566,.2298c-.9259-.139-1.86329-.2298-2.8182-.2298-13.2989,0-24.0798,13.8715-24.0798,30.9825s10.7809,30.9827,24.0798,30.9827c.95491,0,1.8923-.0908,2.8182-.2299l.1566,.2299h10.9074c13.2988,0,24.0798-13.8713,24.0798-30.9827s-10.781-30.9825-24.0798-30.9825Z" style="fill:#263238; stroke:#263238; stroke-linecap:round; stroke-linejoin:round;"></path><path d="M705.283,396.4632h-5.23241l-4.6898-32.8769c-.5709-4.0027-3.9987-6.9762-8.0419-6.9762h-29.3364l-47.6323-50.5482c-5.1564-5.4723-12.34219-8.5746-19.8613-8.5746h-126.2726c-5.5041,0-10.7698,2.2456-14.5798,6.2178l-216.88339,91.5623v38.6572h325.17529l81.6083-.5798,60.5139-3.968v-.276h4.9755c1.097,0,1.9862-.8893,1.9862-1.9861v-28.9222c0-.955-.77429-1.7293-1.72929-1.7293Z" style="fill:#92E3A9; stroke:#263238; stroke-linecap:round; stroke-linejoin:round;"></path><path d="M612.905,427.9852v5.5489l26.63169-.1893,60.5139-3.968v-.276h4.9755c.7802,0,1.4393-.4609,1.7643-1.1156h-93.88539Z" style="fill:#263238; stroke:#263238; stroke-linecap:round; stroke-linejoin:round;"></path><path d="M639.53669,433.3448h0c2.5574-.1677,2.433-3.968-.1299-3.968h-30.5986l-113.1643-131.8895h-31.4276c-5.5038,0-10.7698,2.2456-14.5798,6.2178l-216.88339,91.5623v38.6572h325.17529l81.6083-.5798Z" style="fill:#263238; stroke:#263238; stroke-linecap:round; stroke-linejoin:round;"></path><g><path d="M283.4202,395.5517h-10.9077l-7.1521,10.5004c-3.744,5.461-6.02,12.6277-6.02,20.4821s2.276,15.0213,6.02,20.4822l7.1521,10.5005h10.9077c13.2988,0,24.0796-13.8715,24.0796-30.9827s-10.7808-30.9825-24.0796-30.9825Z" style="fill:#263238; stroke:#263238; stroke-linecap:round; stroke-linejoin:round;"></path><ellipse cx="269.53775" cy="426.53425" rx="24.07975" ry="30.98265" style="fill:#636363; stroke:#263238; stroke-linecap:round; stroke-linejoin:round;"></ellipse><ellipse cx="269.53775" cy="426.53425" rx="19.20975" ry="24.71655" style="fill:#fff; stroke:#263238; stroke-linecap:round; stroke-linejoin:round;"></ellipse><path d="M273.5962,426.5342c0,2.884-1.8172,5.2219-4.0584,5.2219-2.2414,0-4.0585-2.3379-4.0585-5.2219s1.8171-5.2217,4.0585-5.2217c2.2412,0,4.0584,2.3378,4.0584,5.2217Z" style="fill:#fff; stroke:#263238; stroke-linecap:round; stroke-linejoin:round;"></path></g><g><path d="M526.44879,395.5517h-10.9075l-7.1521,10.5004c-3.744,5.461-6.0199,12.6277-6.0199,20.4821s2.2759,15.0213,6.0199,20.4822l7.1521,10.5005h10.9075c13.2988,0,24.0798-13.8715,24.0798-30.9827s-10.781-30.9825-24.0798-30.9825Z" style="fill:#263238; stroke:#263238; stroke-linecap:round; stroke-linejoin:round;"></path><ellipse cx="512.56667" cy="426.53425" rx="24.07957" ry="30.98265" style="fill:#636363; stroke:#263238; stroke-linecap:round; stroke-linejoin:round;"></ellipse><ellipse cx="512.56667" cy="426.53425" rx="19.20957" ry="24.71655" style="fill:#fff; stroke:#263238; stroke-linecap:round; stroke-linejoin:round;"></ellipse><path d="M516.62489,426.5342c0,2.884-1.8168,5.2219-4.0582,5.2219-2.2416,0-4.0583-2.3379-4.0583-5.2219s1.8167-5.2217,4.0583-5.2217c2.2414,0,4.0582,2.3378,4.0582,5.2217Z" style="fill:#fff; stroke:#263238; stroke-linecap:round; stroke-linejoin:round;"></path></g><path d="M610.35019,306.0619c-.39319-.4177-.8199-.7945-1.2364-1.1843h-98.36979v48.6059h144.29219l-44.686-47.4216Z" style="fill:#263238; stroke:#263238; stroke-linecap:round; stroke-linejoin:round;"></path><path d="M621.647,396.4632h-5.73271l-5.6848-39.8531h-36.3833l-47.632-50.5482c-5.1567-5.4723-12.3425-8.5746-19.8614-8.5746h-115.9107c-5.50409,0-10.7697,2.2458-14.5797,6.2178l-74.038,49.4941-68.503,29.5612-10.7186,14.3933c-2.6374,3.5415-4.062,7.8395-4.062,12.2549v24.516h21.6026v-8.1696c0-19.9776,14.5279-36.1726,32.4488-36.1726h.0001c15.9671,0,25.889,12.9492,28.3793,30.531l1.9563,13.8112h180.5287v-8.1696c0-19.9776,8.1977-36.1726,30.2317-36.1726h0c19.6318,0,26.65171,12.9492,29.7134,30.531l2.30431,13.2314,70.20829-3.968v-.276h5.73271v-32.6376Z" style="fill:#92E3A9; stroke:#263238; stroke-linecap:round; stroke-linejoin:round;"></path><path d="M376.48109,310.9902l-63.5712,42.209h118.8143v-47.7531h-42.06819c-4.95881,0-9.70821,1.9986-13.17491,5.5441Z" style="fill:#263238; stroke:#263238; stroke-linecap:round; stroke-linejoin:round;"></path><g><path d="M362.67639,353.1992l37.6825-47.7531h-10.70289c-4.95881,0-9.70821,1.9986-13.17491,5.5441l-22.244,14.7693-21.65309,27.4397h30.09239Z" style="fill:#fff; stroke:#263238; stroke-linecap:round; stroke-linejoin:round;"></path><polygon points="431.72419 353.1992 431.72419 318.9095 404.66549 353.1992 431.72419 353.1992" style="fill:#fff; stroke:#263238; stroke-linecap:round; stroke-linejoin:round;"></polygon></g><path d="M522.252,313.2234l27.02589,27.6402c.9015,.9219,1.5412,2.0673,1.8533,3.3184h0c1.14281,4.5813-2.3227,9.0172-7.0441,9.0172h-104.4042v-47.7531h64.0879c6.9557,0,13.6181,2.8037,18.48121,7.7773Z" style="fill:#263238; stroke:#263238; stroke-linecap:round; stroke-linejoin:round;"></path><g><polygon points="496.93439 305.4461 486.43709 305.4461 448.75439 353.1992 459.25169 353.1992 496.93439 305.4461" style="fill:#fff; stroke:#263238; stroke-linecap:round; stroke-linejoin:round;"></polygon><polygon points="439.68289 308.8237 439.68289 346.9581 472.44059 305.4461 442.34829 305.4461 439.68289 308.8237" style="fill:#fff; stroke:#263238; stroke-linecap:round; stroke-linejoin:round;"></polygon></g><path d="M610.22949,356.6101h77.0894c4.0432,0,7.471,2.9735,8.0419,6.9762l4.6898,32.8769h-84.1363l-5.6848-39.8531Z" style="fill:#92E3A9; stroke:#263238; stroke-linecap:round; stroke-linejoin:round;"></path><rect x="646.84469" y="374.5797" width="36.5588" height="15.0128" style="fill:#fff; stroke:#263238; stroke-linecap:round; stroke-linejoin:round;"></rect><line x1="704.06859" y1="402.6081" x2="547.41139" y2="402.6081" style="fill:#fff; stroke:#263238; stroke-linecap:round; stroke-linejoin:round; stroke-width:2px;"></line><line x1="477.40929" y1="402.6081" x2="303.8049" y2="402.6081" style="fill:#fff; stroke:#263238; stroke-linecap:round; stroke-linejoin:round; stroke-width:2px;"></line><line x1="246.1704" y1="402.6081" x2="226.3009" y2="402.6081" style="fill:#fff; stroke:#263238; stroke-linecap:round; stroke-linejoin:round; stroke-width:2px;"></line><path d="M640.533,374.8229h-34.53991c-3.26,0-6.2403,1.842-7.6985,4.7578l-5.7762,11.5527c-1.1558,2.3113,.5249,5.0308,3.1091,5.0308h44.90551v-21.3413Z" style="fill:#fff; stroke:#263238; stroke-linecap:round; stroke-linejoin:round;"></path><polygon points="640.533 374.8229 612.69689 374.8229 615.74119 396.1642 640.533 396.1642 640.533 374.8229" style="fill:#263238; stroke:#263238; stroke-linecap:round; stroke-linejoin:round;"></polygon><polygon points="696.833 374.8229 688.40369 374.8229 688.29319 396.1642 699.87729 396.1642 696.833 374.8229" style="fill:#263238; stroke:#263238; stroke-linecap:round; stroke-linejoin:round;"></polygon><rect x="300.9716" y="343.2507" width="22.171" height="18.76" rx="2" ry="2" style="fill:#263238; stroke:#263238; stroke-linecap:round; stroke-linejoin:round;"></rect><rect x="407.56329" y="362.0107" width="21.3184" height="8.5275" style="fill:#263238; stroke:#263238; stroke-linecap:round; stroke-linejoin:round;"></rect><line x1="433.99819" y1="358.5999" x2="433.99819" y2="423.4075" style="fill:none; stroke:#263238; stroke-linecap:round; stroke-linejoin:round;"></line><path d="M289.8861,387.5929s15.6144,8.8113,17.6137,38.9413h165.7239" style="fill:none; stroke:#263238; stroke-linecap:round; stroke-linejoin:round;"></path><path d="M551.67519,400.3839s-8.1628-21.3185-35.496-21.3185c-19.0504,0-28.1614,10.0053-32.7226,17.9076" style="fill:none; stroke:#263238; stroke-linecap:round; stroke-linejoin:round;"></path></g></g><g id="freepik--Keys--inject-54"><g><g><circle cx="136.76882" cy="105.58158" r="51.24822" transform="translate(-20.59896 34.24742) rotate(-13.28251)" style="fill:#263238; stroke:#263238; stroke-linecap:round; stroke-linejoin:round;"></circle><circle cx="136.76882" cy="102.01718" r="51.24822" transform="translate(-19.78003 34.15207) rotate(-13.28251)" style="fill:#92E3A9; stroke:#263238; stroke-linecap:round; stroke-linejoin:round;"></circle><path d="M152.0154,69.7131c-2.3276-1.1663-5.1591-.2242-6.3254,2.1027-1.1659,2.3277-.2245,5.1595,2.1028,6.3254,8.9217,4.4694,14.4639,13.4396,14.4639,23.4097,0,14.4271-11.7372,26.1643-26.1643,26.1643s-26.164-11.7372-26.164-26.1643c0-2.9862,.5094-5.9285,1.4887-8.7078l5.21707,5.4904,7.45678-25.2409-25.58845,6.1593,5.862,6.1691c-2.5316,4.9757-3.8627,10.4972-3.8627,16.1299,0,19.6248,15.96583,35.591,35.5906,35.591s35.5909-15.9662,35.5909-35.591c0-13.5607-7.5362-25.76-19.6679-31.8378Z" style="fill:#263238;"></path><path d="M136.8199,107.5452c.0138,0,.0272-.002,.041-.0021l4.3568,12.6118c.2592,.7503,.9617,1.2212,1.7134,1.2212,.1961,0,.3958-.0319,.5919-.0999,.9461-.3268,1.4485-1.3589,1.1214-2.3053l-4.3588-12.6175c1.3395-1.0386,2.2068-2.6584,2.2068-4.4806,0-1.0344-.2829-2.002-.7686-2.8379l8.0372-9.1536c.6606-.7524,.5863-1.8978-.1661-2.5581-.7531-.6614-1.8981-.5867-2.5581,.166l-8.0333,9.1494c-.6726-.2816-1.41-.4383-2.1836-.4383-3.12782,0-5.67248,2.5446-5.67248,5.6725s2.54466,5.6724,5.67248,5.6724Z" style="fill:#263238;"></path></g><g><path d="M260.4181,73.3532c-2.1353-1.191-4.7695-.5519-5.8719,1.4245l-1.7235,3.0901c-1.1024,1.9765-.262,4.5535,1.8733,5.7445,2.1354,1.191,4.7696,.552,5.8719-1.4245l1.7236-3.0901c1.1023-1.9764,.2619-4.5535-1.8734-5.7445Zm-3.6786,2.6479c.478-.8572,1.6203-1.1343,2.5463-.6178s1.2904,1.634,.8124,2.4911l-1.7236,3.0901c-.478,.8571-1.6203,1.1342-2.5463,.6177s-1.2904-1.634-.8124-2.4911l1.7236-3.09Z" style="fill:#fff; stroke:#263238; stroke-linecap:round; stroke-linejoin:round;"></path><path d="M275.1806,89.4118l-32.7737-20.4372c-6.4298-4.0095-14.915-1.6207-18.3085,5.1545l-20.5978,41.1227c-2.9741,5.9375-.9398,13.1628,4.695,16.6766l25.5077,15.9063c5.6348,3.5137,13.0182,2.161,17.0413-3.1222l27.8638-36.5918c4.5906-6.0287,3.0021-14.6993-3.4278-18.7089Zm-43.2705-9.8512c3.2023-3.0996,7.8931-3.9864,11.4945-1.7407l23.3941,14.5883c3.6013,2.2457,4.8692,6.8482,3.4949,11.0878l-38.3835-23.9354Z" style="fill:#263238; stroke:#263238; stroke-linecap:round; stroke-linejoin:round;"></path><g><polygon points="212.5616 134.651 185.7614 177.6287 186.18 184.5759 182.9005 189.835 176.8404 192.5254 174.4042 196.4321 175.5709 199.2465 173.5095 202.5521 169.7564 203.5508 167.0391 207.9083 166.8759 215.8043 170.4923 218.0595 219.7207 139.1153 212.5616 134.651" style="fill:#fff; stroke:#263238; stroke-linecap:round; stroke-linejoin:round;"></polygon><polygon points="226.8798 143.5796 200.0796 186.5572 193.6569 189.2384 190.3775 194.4975 190.6281 201.1232 188.192 205.0299 185.1514 205.2207 183.09 208.5264 183.8447 212.3361 181.1274 216.6936 174.1088 220.3147 170.4923 218.0595 219.7207 139.1153 226.8798 143.5796" style="fill:#fff; stroke:#263238; stroke-linecap:round; stroke-linejoin:round;"></polygon></g></g><g><path d="M227.0299,60.5028c-.0433,2.117,1.5157,3.872,3.4752,3.9121l3.0636,.0626c1.9595,.0401,3.589-1.6497,3.6323-3.7668,.0433-2.117-1.5157-3.872-3.4753-3.912l-3.0636-.0627c-1.9595-.04-3.5889,1.6498-3.6322,3.7668Zm3.5197,1.7376c-.8498-.0174-1.5258-.7784-1.507-1.6965s.7253-1.6508,1.5751-1.6334l3.0636,.0626c.8497,.0174,1.5258,.7784,1.507,1.6965-.0188,.918-.7253,1.6508-1.5751,1.6334l-3.0636-.0626Z" style="fill:#fff; stroke:#263238; stroke-linecap:round; stroke-linejoin:round;"></path><path d="M238.5712,59.8525c-.7294,1.9879,.1741,4.1545,2.0141,4.8297l2.8767,1.0555c1.84,.6751,3.9304-.3929,4.6598-2.3808,.7294-1.9878-.1741-4.1545-2.0141-4.8296l-2.8767-1.0555c-1.84-.6751-3.9304,.3929-4.6598,2.3807Zm2.7633,2.7879c-.7979-.2928-1.1897-1.2324-.8734-2.0944,.3163-.8621,1.2228-1.3252,2.0207-1.0324l2.8767,1.0555c.7979,.2928,1.1897,1.2323,.8734,2.0944-.3163,.862-1.2228,1.3252-2.0207,1.0324l-2.8767-1.0555Z" style="fill:#fff; stroke:#263238; stroke-linecap:round; stroke-linejoin:round;"></path><path d="M248.8243,64.0156c-1.6211,1.3624-1.914,3.6915-.653,5.1919l1.9715,2.3458c1.261,1.5004,3.6057,1.6127,5.2268,.2504,1.621-1.3623,1.9139-3.6915,.6529-5.1919l-1.9714-2.3458c-1.261-1.5004-3.6058-1.6127-5.2268-.2504Zm1.012,3.7926c-.5468-.6507-.4198-1.6607,.2832-2.2515,.703-.5907,1.7197-.542,2.2665,.1086l1.9715,2.3458c.5468,.6507,.4198,1.6607-.2831,2.2515-.703,.5908-1.7198,.5421-2.2666-.1086l-1.9715-2.3458Z" style="fill:#fff; stroke:#263238; stroke-linecap:round; stroke-linejoin:round;"></path><g><path d="M215.7466,60.2721c-.0433,2.117,1.5158,3.872,3.4753,3.912l3.0636,.0627c1.9595,.04,3.589-1.6498,3.6322-3.7668,.0433-2.117-1.5157-3.872-3.4752-3.9121l-3.0636-.0626c-1.9595-.0401-3.589,1.6497-3.6323,3.7668Zm3.5198,1.7375c-.8498-.0173-1.5259-.7783-1.5071-1.6964s.7254-1.6508,1.5751-1.6334l3.0636,.0626c.8498,.0174,1.5258,.7784,1.5071,1.6965-.0188,.918-.7254,1.6508-1.5752,1.6334l-3.0635-.0627Z" style="fill:#fff; stroke:#263238; stroke-linecap:round; stroke-linejoin:round;"></path><path d="M226.5193,61.58l4.0363,.0826c.5558,.0113,1.0163-.4662,1.0286-1.0667s-.4283-1.0965-.9841-1.1078l-4.0363-.0826-.2237-.0045-3.9556-.0809c-.5558-.0114-1.0163,.4662-1.0286,1.0667-.0123,.6004,.4283,1.0964,.9841,1.1078l3.9557,.0808,.2236,.0046Z" style="fill:#fff; stroke:#263238; stroke-linecap:round; stroke-linejoin:round;"></path><path d="M238.0717,61.8172l4.0364,.0825c.5558,.0114,1.0163-.4661,1.0285-1.0666,.0123-.6005-.4283-1.0965-.9841-1.1078l-4.0363-.0826-.2236-.0045-3.9557-.0809c-.5558-.0114-1.0163,.4661-1.0286,1.0666-.0123,.6005,.4283,1.0965,.9841,1.1079l3.9557,.0808,.2236,.0046Z" style="fill:#fff; stroke:#263238; stroke-linecap:round; stroke-linejoin:round;"></path><path d="M247.655,64.9858l3.131,2.5487c.4312,.3509,1.088,.2579,1.4672-.2079,.3791-.4658,.337-1.1279-.0941-1.4788l-3.131-2.5487-.1735-.1412-3.0684-2.4978c-.4311-.3509-1.088-.2578-1.4671,.208-.3792,.4657-.3371,1.1278,.0941,1.4788l3.0684,2.4977,.1734,.1412Z" style="fill:#fff; stroke:#263238; stroke-linecap:round; stroke-linejoin:round;"></path><path d="M255.062,72.8583l2.5496,3.1302c.351,.4311,1.0131,.473,1.4788,.0937s.5585-1.0362,.2075-1.4672l-2.5496-3.1302-.1412-.1735-2.4987-3.0677c-.3511-.431-1.0131-.4729-1.4788-.0936-.4657,.3792-.5586,1.0361-.2075,1.4672l2.4986,3.0676,.1413,.1735Z" style="fill:#fff; stroke:#263238; stroke-linecap:round; stroke-linejoin:round;"></path></g><g><path d="M204.6435,61.6963c.2323,2.1047,2.0062,3.6422,3.9543,3.4272l3.0458-.3361c1.948-.215,3.344-2.1023,3.1118-4.2069-.2323-2.1047-2.0062-3.6422-3.9543-3.4272l-3.0458,.3361c-1.948,.215-3.344,2.1022-3.1118,4.2069Zm3.7157,1.2654c-.8448,.0932-1.614-.5735-1.7147-1.4862s.5046-1.7311,1.3494-1.8243l3.0457-.3361c.8449-.0932,1.6141,.5734,1.7148,1.4861,.1007,.9128-.5046,1.7312-1.3494,1.8244l-3.0458,.3361Z" style="fill:#fff; stroke:#263238; stroke-linecap:round; stroke-linejoin:round;"></path><path d="M215.0339,59.4556l-3.9326,.434c-.5526,.061-.9471,.5943-.8812,1.1913s.5672,1.0315,1.1198,.9705l3.9326-.434,.2223-.0245,4.0128-.4428c.5526-.061,.9471-.5944,.8812-1.1913-.0658-.597-.5672-1.0315-1.1198-.9705l-4.0128,.4428-.2223,.0245Z" style="fill:#fff; stroke:#263238; stroke-linecap:round; stroke-linejoin:round;"></path></g><g><path d="M193.9227,65.2895c.5878,2.0342,2.598,3.2465,4.4809,2.7024l2.9438-.8507c1.8828-.5441,2.9365-2.6418,2.3486-4.6761-.5878-2.0342-2.598-3.2466-4.4809-2.7024l-2.9438,.8507c-1.8829,.5441-2.9365,2.6419-2.3486,4.6761Zm3.8771,.613c-.8165,.236-1.6882-.2898-1.9432-1.1719-.2549-.8822,.202-1.7918,1.0185-2.0278l2.9438-.8507c.8165-.2359,1.6882,.2897,1.9431,1.1719,.255,.8822-.2019,1.7918-1.0184,2.0278l-2.9438,.8507Z" style="fill:#fff; stroke:#263238; stroke-linecap:round; stroke-linejoin:round;"></path><path d="M204.5973,63.3366l3.8785-1.1208c.534-.1543,.8318-.7472,.6651-1.3242-.1668-.577-.7349-.9196-1.2689-.7652l-3.8785,1.1208-.2149,.0621-3.801,1.0984c-.534,.1544-.8318,.7472-.665,1.3242,.1667,.577,.7348,.9196,1.2689,.7652l3.8009-1.0984,.2149-.0621Z" style="fill:#fff; stroke:#263238; stroke-linecap:round; stroke-linejoin:round;"></path></g><g><path d="M183.2695,69.067c.6839,2.0039,2.7495,3.1194,4.6044,2.4863l2.9-.9896c1.8548-.6331,2.8076-2.7785,2.1237-4.7825s-2.7495-3.1194-4.6044-2.4864l-2.9,.9897c-1.8548,.633-2.8076,2.7785-2.1237,4.7825Zm3.9019,.428c-.8044,.2745-1.7001-.2092-1.9966-1.0782-.2966-.8691,.1165-1.7994,.9209-2.0739l2.9-.9897c.8044-.2745,1.7001,.2092,1.9966,1.0782,.2966,.869-.1165,1.7994-.9209,2.0739l-2.9,.9897Z" style="fill:#fff; stroke:#263238; stroke-linecap:round; stroke-linejoin:round;"></path><path d="M193.8393,66.6089l3.8208-1.3039c.5261-.1796,.7954-.7859,.6014-1.3543s-.7778-.8837-1.3039-.7041l-3.8208,1.3039-.2117,.0723-3.7444,1.2778c-.5262,.1796-.7954,.7859-.6014,1.3543s.7777,.8836,1.3038,.7041l3.7445-1.2779,.2117-.0722Z" style="fill:#fff; stroke:#263238; stroke-linecap:round; stroke-linejoin:round;"></path><path d="M183.0922,70.2163l3.8208-1.304c.5262-.1795,.7954-.7858,.6014-1.3542s-.7777-.8837-1.3038-.7041l-3.8208,1.3039-.2117,.0723-3.7444,1.2778c-.5262,.1795-.7954,.7859-.6014,1.3543s.7777,.8836,1.3038,.7041l3.7445-1.2779,.2116-.0722Z" style="fill:#fff; stroke:#263238; stroke-linecap:round; stroke-linejoin:round;"></path></g></g></g></g><g id="freepik--Character_2--inject-54"><g><g><g><polygon points="165.2299 278.9712 165.2299 286.2863 166.2843 287.7362 167.0751 286.3522 167.0751 278.9712 165.2299 278.9712" style="fill:#fff; stroke:#263238; stroke-linecap:round; stroke-linejoin:round;"></polygon><polygon points="164.439 276.4011 165.2299 278.9712 167.141 278.9712 168.0636 275.9397 164.439 276.4011" style="fill:#fff; stroke:#263238; stroke-linecap:round; stroke-linejoin:round;"></polygon><circle cx="166.0444" cy="272.8688" r="3.6471" style="fill:#263238; stroke:#263238; stroke-linecap:round; stroke-linejoin:round;"></circle></g><g><path d="M173.612,257.6887s-5.1291-1.998-6.3381-2.8041c-1.209-.806-3.2241-.9403-3.2241-.1343s1.4777,1.7464,2.6867,2.4181c1.2091,.6717,5.7766,3.8958,5.7766,3.8958l1.7464-2.0151-.6475-1.3604Z" style="fill:#fff; stroke:#263238; stroke-linecap:round; stroke-linejoin:round;"></path><path d="M180.8905,260.9236s-6.4698-2.9653-7.2785-3.2349-7.5471-1.595-8.7562-1.595c-1.209,0-1.3434,1.3434-.6717,1.612,.6717,.2687,3.0898,.8061,3.4928,.8061s5.1049,1.209,5.1049,1.209c0,0-5.9109,3.7615-6.3139,4.4332s-1.4778,2.4181-1.7464,3.4928c-.2687,1.0747-.8061,1.7464,.403,1.8807,1.209,.1343,3.0898-3.6271,3.0898-3.6271,0,0,3.7614-1.8808,4.4331-1.8808s2.9555,2.2838,3.3585,3.0898-3.6271,1.2091-5.9109,2.0151c-2.2837,.806-4.5675,.6717-4.9705,1.8807-.403,1.2091,1.612,1.4777,3.0898,1.2091,1.4777-.2687,5.1048-.2687,5.1048-.2687,0,0,3.0898,.6717,4.9705-.1344,1.8808-.806,4.0302-2.015,4.0302-2.015l2.1026,3.0942,3.6742-5.937-7.2061-6.0298Z" style="fill:#fff; stroke:#263238; stroke-linecap:round; stroke-linejoin:round;"></path></g></g><path d="M188.0966,266.9534l-5.562,8.8064s19.4668,25.9558,20.8573,26.1875c1.3905,.2318,4.635-.6952,4.635-.6952l3.0127-46.1178-7.4159,24.1017-15.5271-12.2826Z" style="fill:#8c8c8c; stroke:#263238; stroke-linecap:round; stroke-linejoin:round;"></path><g><path d="M211.2603,447.1135s-3.8148,3.366-6.2832,4.7124c-2.4684,1.3465-8.0784,3.5904-7.854,4.2637,.2244,.6731,2.0196,1.3464,3.5904,1.3464h14.1373l3.1416-1.122,2.0196-1.122,.2244,2.244h5.3856l-.2244-9.6493-14.1373-.6732Z" style="fill:#8c8c8c; stroke:#263238; stroke-linecap:round; stroke-linejoin:round;"></path><g><path d="M247.3696,443.5124s-.5187,5.7055-.5187,7.2616c0,1.556-4.8411,3.9766-4.6682,5.3597l.1729,1.3832h17.6353s1.0374-1.0374,.5187-3.8037-1.0374-8.1261-1.0374-8.1261l-12.1026-2.0747Z" style="fill:#8c8c8c; stroke:#263238; stroke-linecap:round; stroke-linejoin:round;"></path><path d="M204.7528,324.1419s1.7321,47.6795,1.7321,57.5531,1.1851,46.7932,1.1851,50.3837c0,3.5903-.2245,15.2592-.2245,15.2592,0,0,3.1416,.4488,6.9564,.8976,3.8149,.4488,10.9957-.4488,10.9957-.4488v-13.6884c0-2.9172,4.0392-57.2222,4.0392-57.2222l.2244-15.4837s5.8344,28.0501,6.5077,32.7625c.6731,4.7124,9.2004,52.7343,9.2004,52.7343h15.0348s.2244-32.0894,.4488-39.9434c.2244-7.8541,.6732-34.3333,.6732-35.6797,0-1.3465-.293-30.8841-.293-30.8841l-1.0533-18.9329-54.5294-1.3464-.8976,4.0392Z" style="fill:#263238; stroke:#263238; stroke-linecap:round; stroke-linejoin:round;"></path><polyline points="229.6612 361.3924 225.1732 347.0308 220.6851 345.2356" style="fill:none; stroke:#7d7d7d; stroke-linecap:round; stroke-linejoin:round;"></polyline></g><path d="M206.0991,322.1223s13.6885,6.2832,34.109,2.244c0,0,.2244-2.244,5.1612-27.8257s8.3028-45.7778,8.3028-45.7778c0,0-3.366-3.8147-8.7517-5.3856-5.3856-1.5708-21.0936,2.4684-25.806,4.488-4.7125,2.0196-13.0153,62.8323-13.0153,72.2571Z" style="fill:#92E3A9; stroke:#263238; stroke-linecap:round; stroke-linejoin:round;"></path><g><path d="M228.5392,244.9285s-14.3416,4.9792-16.1368,5.6524-2.6928,3.5904-2.6928,3.5904c0,0-9.4449,65.9314-9.4449,69.9706s-.6731,16.1568-.6731,16.1568c0,0,3.5903,3.8149,6.0588,4.7125,2.4683,.8976,5.1612,1.3464,5.1612,1.3464,0,0,2.7962-42.1205,5.7134-60.0725,2.9171-17.9521,5.2822-33.9514,6.853-36.4199,1.5708-2.4684,5.1612-4.9367,5.1612-4.9367Z" style="fill:#8c8c8c; stroke:#263238; stroke-linecap:round; stroke-linejoin:round;"></path><path d="M228.5392,244.9285s-4.7971,1.8965-9.8304,3.8818l-6.5977,8.3442,2.0942,8.0779-5.086,4.1886,6.5718,23.4172c.2475-2.4321,.5241-4.6468,.8339-6.5531,2.9171-17.9521,5.2822-33.9514,6.853-36.4199,1.5708-2.4684,5.1612-4.9367,5.1612-4.9367Z" style="fill:#8c8c8c; stroke:#263238; stroke-linecap:round; stroke-linejoin:round;"></path></g><g><path d="M228.5392,242.9089s-5.61,5.3855-6.2832,7.1808c-.6732,1.7951,.6732,24.684,1.5708,25.5816s21.9912-24.0109,23.1132-26.7036c1.1221-2.6929,1.3465-3.5905,.6733-5.1613-.6733-1.5708-1.122-2.4684-1.122-2.4684l-17.9521,1.5709Z" style="fill:#fff; stroke:#263238; stroke-linecap:round; stroke-linejoin:round;"></path><path d="M222.256,259.0657c.6732,0,8.3028-5.8344,8.3028-5.8344l5.1612,9.4248" style="fill:#fff; stroke:#263238; stroke-linecap:round; stroke-linejoin:round;"></path></g><g><path d="M247.6133,243.8064s-14.1424,25.6914-17.284,39.3798c-3.1416,13.6885,3.0095,60.3542,4.5803,63.7202s21.089,1.8539,21.089,1.8539l11.8107-2.4027s-3.9155-15.5791-5.3217-24.0165c-1.6223-9.7334-3.0127-17.5133-3.0127-21.5525s8.7833-42.845,7.6612-45.7621c-1.122-2.9172-19.5228-11.2201-19.5228-11.2201Z" style="fill:#8c8c8c; stroke:#263238; stroke-linecap:round; stroke-linejoin:round;"></path><path d="M252.6645,246.1829c-2.8878-1.4003-5.0512-2.3765-5.0512-2.3765,0,0-14.1424,25.6914-17.284,39.3798-1.0201,4.4444-.6893,6.2103-.8451,13.2409l20.3237-20.7234-7.4796-7.1802,8.9755-3.2911,1.3607-19.0495Z" style="fill:#8c8c8c; stroke:#263238; stroke-linecap:round; stroke-linejoin:round;"></path></g><path d="M247.6133,232.5863s-.8976,9.8737-2.0196,11.6689c-1.122,1.7953-12.1177,8.5272-13.9129,8.5272-1.7951,0-2.9172-2.4684-3.5904-5.1612-.4916-1.9663,.0937-5.0095,.4453-6.5084,.1299-.5538,.2279-.8968,.2279-.8968l18.8497-7.6297Z" style="fill:#fff; stroke:#263238; stroke-linecap:round; stroke-linejoin:round;"></path><polygon points="239.0067 240.7199 228.0415 246.8604 228.5357 241.1128 239.0067 240.7199" style="fill:#263238; stroke:#263238; stroke-linecap:round; stroke-linejoin:round;"></polygon><g><path d="M237.2909,201.6191s-9.2494-2.4205-12.3196,8.3984c-.7974,2.8098-.4734,8.3185-.8004,11.3575-.2471,2.2956-1.1507,4.3203-.7759,5.8192,.7759,3.1036,2.2039,11.6398,3.9991,13.4351,1.7952,1.7952,4.276,1.8143,6.9795,1.6063,2.9173-.2244,10.7713-4.9368,12.7909-6.2832,2.0196-1.3465,2.6611-5.6128,2.6611-5.6128,0,0,3.3977-3.1388,5.6417-5.1585,2.244-2.0196,3.366-10.7712,1.5708-15.708s-12.1177-8.976-19.7472-7.854Z" style="fill:#fff; stroke:#263238; stroke-linecap:round; stroke-linejoin:round;"></path><path d="M229.2375,231.0029s4.9155,1.2289,7.5781-.8192" style="fill:none; stroke:#263238; stroke-linecap:round; stroke-linejoin:round;"></path><path d="M228.0242,223.9449s-.8235,1.9762-.3294,2.4703c.494,.494,1.9762,1.6468,2.9643,1.6468s2.1409-1.1528,2.1409-1.1528" style="fill:none; stroke:#263238; stroke-linecap:round; stroke-linejoin:round;"></path><path d="M257.4767,210.7247l.0253,.0015s-.2679-1.0615-1.0671-2.5071c-1.0121-1.9958-2.3614-3.6676-3.9864-4.6078-.0232-.0176-.0435-.0361-.0669-.0537-4.0963-3.0722-14.9502-4.2135-20.685-3.1894-5.7349,1.0241-3.6551,4.2399-3.6551,4.2399,0,0,4.5102,1.2669,12.281,.731,4.2398-.2924,7.5531,1.086,7.3483,2.5196-.0899,.63-.8522,1.1015-1.6785,1.4325-.8213,.0532-1.5921,.1939-2.1933,.6123l-.0197,.0034,.0141,.0009c-.5514,.3862-.9623,1.0026-1.1169,2.0337-.6732,4.488,2.9172,5.1612,3.366,6.9564,.4488,1.7953,1.5708,5.61,3.1416,6.2833,1.5708,.6732,2.244,4.4879,3.5904,4.2635,1.3465-.2244,5.5272-5.2276,5.7515-11.9596,.0712-2.1337-.3015-4.5306-1.0493-6.7604Z" style="fill:#263238; stroke:#263238; stroke-linecap:round; stroke-linejoin:round;"></path><g><path d="M233.485,214.9477s3.1416-.2245,4.9369,1.7951" style="fill:none; stroke:#263238; stroke-linecap:round; stroke-linejoin:round; stroke-width:2px;"></path><path d="M229.2111,214.696s-1.5708-.6732-3.8148,.4488" style="fill:none; stroke:#263238; stroke-linecap:round; stroke-linejoin:round; stroke-width:2px;"></path><path d="M235.9445,220.0199c0,.8676-.3517,1.5708-.7855,1.5708-.4337,0-.7854-.7032-.7854-1.5708,0-.8675,.3517-1.5708,.7854-1.5708,.4338,0,.7855,.7033,.7855,1.5708Z" style="fill:#263238;"></path><path d="M227.5294,219.1223c0,.8676-.3516,1.5709-.7854,1.5709s-.7854-.7033-.7854-1.5709c0-.8675,.3516-1.5708,.7854-1.5708s.7854,.7033,.7854,1.5708Z" style="fill:#263238;"></path></g></g><path d="M247.3889,225.4055s3.5903-5.6099,5.3856-4.4879c1.7952,1.1219,1.3464,6.2832,0,8.5271-1.3464,2.244-4.7124,.4489-4.7124,.4489" style="fill:#fff; stroke:#263238; stroke-linecap:round; stroke-linejoin:round;"></path></g><g><g><path d="M253.3554,337.9198l-2.1994,8.9977s1.9995,7.3981,2.7993,7.998c.7998,.5998,5.5986,1.7995,5.5986,1.7995,0,0,3.9989-1.3996,3.9989-1.9995,0-.5998,1.6128-1.5982,.4675-2.0074-1.1037-.3944-2.6101-1.5847-2.6101-1.5847l-.4567-2.2064s1.9995-2.1995,1.9995-3.5991-1.3997-6.5983-1.3997-6.5983l-8.1979-.7998Z" style="fill:#fff; stroke:#263238; stroke-linecap:round; stroke-linejoin:round;"></path><path d="M253.3936,348.5133s1.0253,5.1269,1.5846,5.4066c.5594,.2796,4.5757,2.7951,4.5757,2.7951" style="fill:none; stroke:#263238; stroke-linecap:round; stroke-linejoin:round;"></path><path d="M255.9986,348.7603l1.5897,4.5071s3.7287,2.5168,4.0084,2.5168" style="fill:none; stroke:#263238; stroke-linecap:round; stroke-linejoin:round;"></path><polyline points="258.0544 348.5133 259.7323 352.6148 263.5528 354.7155" style="fill:none; stroke:#263238; stroke-linecap:round; stroke-linejoin:round;"></polyline></g><path d="M258.0977,254.6277s-4.9409,9.1761-4.2351,11.2937c.7059,2.1175,1.7646,32.1163,1.7646,32.1163l-3.8822,41.9984,11.208,1.0829,8.203-44.493s-1.7646-37.0573-1.7646-39.5278-3.1763-3.8822-5.6468-4.5881" style="fill:#8c8c8c; stroke:#263238; stroke-linecap:round; stroke-linejoin:round;"></path></g></g></g><g id="freepik--Character_1--inject-54"><g><g><path d="M153.9361,297.0848s1.3434-2.9554,2.1494-3.7614c.806-.8061,3.8958-1.8808,3.8958-1.8808,0,0,2.0151-1.0747,2.8211-2.015,.806-.9404,2.6868-1.0747,2.1494,.5373-.5373,1.6121-2.0151,3.3585-2.0151,3.3585l6.8513,.5373s2.6868-4.0301,3.0898-2.9554-.9404,7.1199-1.6121,7.9259c-.6717,.8061-7.9259,1.4778-9.8067,2.4181-1.8807,.9404-4.5675,.403-4.5675,.403l-2.6868,1.8808-2.8211-4.2988,2.5525-2.1495Z" style="fill:#b2b2b2; stroke:#263238; stroke-linecap:round; stroke-linejoin:round;"></path><path d="M172.6091,292.383s-1.2091-4.7018-2.1494-4.1645c-.9404,.5374,.1343,3.0898,.1343,3.0898l.5374,4.0301,1.4777,.4031v-3.3585Z" style="fill:#b2b2b2; stroke:#263238; stroke-linecap:round; stroke-linejoin:round;"></path><path d="M173.0786,295.7857s1.1306-5.7572,.0559-6.4289-1.3314,.4738-1.1971,1.1455-.806,4.8361-.806,4.8361l-1.0747,2.0151,2.4181-.403,.6038-1.1648Z" style="fill:#b2b2b2; stroke:#263238; stroke-linecap:round; stroke-linejoin:round;"></path><path d="M158.2349,299.9059s3.6271-2.5524,4.0301-2.5524h7.7917c.6405-.6476,3.1742-3.5468,4.0301-4.2988,2.1832-1.9183,2.0151,.403,1.0747,1.6121-.911,1.1712-2.1494,4.0301-2.9554,4.4331-.8061,.403-10.7471,2.1494-10.7471,2.1494" style="fill:#b2b2b2; stroke:#263238; stroke-linecap:round; stroke-linejoin:round;"></path></g><path d="M127.21689,253.8142s2.97439,2.7173,3.52121,4.9046c.54681,2.1872,10.7404,38.2537,10.7404,38.2537l12.3034-2.1873,3.0074,9.8427-19.9587,9.5692-9.61371-60.3829Z" style="fill:#fff; stroke:#263238; stroke-linecap:round; stroke-linejoin:round;"></path><g><g><path d="M110.154,429.5501s-.3073,6.4539-1.2293,7.9905-2.1513,4.3026-2.4586,6.4539,0,13.2151,0,13.2151h3.3806l1.2293-4.6099,3.3806,.3073s2.45856,3.6879,3.38054,3.6879,14.75169,.6147,14.75169,.6147v-3.3807s-11.67836-9.2198-12.60034-10.449c-.92198-1.2294-1.22937-7.0686-1.22937-9.5272v-3.688l-8.60512-.6146Z" style="fill:#fff; stroke:#263238; stroke-linecap:round; stroke-linejoin:round;"></path><path d="M106.4661,457.2095h3.3806l1.2293-4.6099,3.3806,.3074s2.45856,3.6879,3.38054,3.6879,14.75169,.6146,14.75169,.6146v-3.3806s-11.67836-9.2198-12.60034-10.4491c-.63442-.8458-.97776-3.8739-1.13026-6.4817-.3403-.0178-.6877,.0685-1.02109,.3352-1.53658,1.2293-1.53658,2.4585-1.53658,2.4585,0,0-5.22456-2.4585-7.37586-2.1512-.922,1.5366-2.1513,4.3026-2.4586,6.4539-.3073,2.1512,0,13.215,0,13.215Z" style="fill:#263238; stroke:#263238; stroke-linecap:round; stroke-linejoin:round;"></path></g><path d="M108.0027,359.7869s4.3026,23.0495,3.9953,26.7374-3.688,42.7185-3.688,42.7185c0,0,4.9172,2.7659,7.37588,2.7659h6.45387s10.44908-41.7965,10.44908-46.0991-.61459-29.8107-.61459-29.8107l-23.97154,3.688Z" style="fill:#263238; stroke:#263238; stroke-linecap:round; stroke-linejoin:round;"></path><g><path d="M89.8704,428.9355s.922,6.7611,0,11.9857,0,16.5957,0,16.5957h18.1323s1.5366-2.1513,.6146-5.2246-4.3025-5.5319-5.5319-8.9124c-1.2292-3.3807-3.3805-9.5272-3.6879-13.8298-.3073-4.3026-9.5271-.6146-9.5271-.6146Z" style="fill:#fff; stroke:#263238; stroke-linecap:round; stroke-linejoin:round;"></path><path d="M108.6173,452.2923c-.922-3.0733-4.3026-5.5319-5.5319-8.9125-.3167-.8709-.6948-1.9273-1.0866-3.0866l-.1426,.0133s-2.766-2.4586-4.9173-.6147c-2.1513,1.844-2.766,3.9954-2.766,3.9954l-4.5811-.3524c-.4101,5.6785,.2786,14.1821,.2786,14.1821h18.1322s1.5367-2.1514,.6147-5.2246Z" style="fill:#263238; stroke:#263238; stroke-linecap:round; stroke-linejoin:round;"></path></g><path d="M83.1092,359.1722s1.844,23.3569,.6146,28.8888c-1.2292,5.5319-.6146,15.981,.6147,20.5909s2.766,21.2055,2.766,21.2055c0,0,4.9172,.922,8.2978,.922h5.2246s2.1512-28.5814,2.1512-37.1865v-34.1133l-19.6689-.3074Z" style="fill:#263238; stroke:#263238; stroke-linecap:round; stroke-linejoin:round;"></path><line x1="62.8257" y1="327.2102" x2="74.8114" y2="278.6525" style="fill:#fff; stroke:#263238; stroke-linecap:round; stroke-linejoin:round; stroke-width:2px;"></line><path d="M96.017,247.9198s-.3803,.2247-1.0408,.6214c-4.1626,2.4997-17.2543,4.8139-18.5804,7.7316-1.5367,3.3807-8.0383,105.9727-8.0383,105.9727,0,0,16.5957,1.844,27.3521,1.844s33.4987-2.4587,39.9526-3.688c6.4538-1.2293,10.7564-2.7659,10.7564-2.7659,0,0-17.35775-101.3628-19.20171-103.8214-1.84397-2.4587-15.88479-7.9932-15.88479-7.9932,0,0-10.7052-2.2038-15.3151,2.0988Z" style="fill:#fff; stroke:#263238; stroke-linecap:round; stroke-linejoin:round;"></path><line x1="109.5393" y1="297.0921" x2="114.4566" y2="363.1675" style="fill:#fff; stroke:#263238; stroke-linecap:round; stroke-linejoin:round;"></line><polygon points="116.60786 247.6125 120.29579 265.1301 115.37858 267.896 120.29579 275.5793 109.232 298.0141 94.7876 268.2034 99.3975 264.8228 93.251 262.0569 96.017 247.9198 105.2368 245.1539 116.60786 247.6125" style="fill:#fff; stroke:#263238; stroke-linecap:round; stroke-linejoin:round;"></polygon><polygon points="98.4755 250.3784 109.232 295.2482 113.2272 249.7638 103.7001 244.8465 98.4755 250.3784" style="fill:#263238; stroke:#263238; stroke-linecap:round; stroke-linejoin:round;"></polygon><path d="M94.9413,249.9174l-3.9349,72.7323,19.5921,1.1524s-2.7495-39.7714-3.6714-53.1401c-.922-13.3687-1.383-20.0531-1.383-20.0531l-10.6028-.6915Z" style="fill:#92E3A9; stroke:#263238; stroke-linecap:round; stroke-linejoin:round;"></path><g><path d="M102.7227,192.967c-5.1303-.8553-10.3632,.8112-14.2618,4.2543-2.9151,2.5745-6.2591,6.3211-6.6686,10.2233-.7422,7.0712,7.3684,8.824,11.9634,7.9305,4.5951-.8935,16.8412-7.3651,18.2127-12.2567,1.3715-4.8915-2.5176-8.719-8.3753-9.985-.2929-.0632-.5831-.1185-.8704-.1664Z" style="fill:#263238; stroke:#263238; stroke-linecap:round; stroke-linejoin:round;"></path><g><path d="M114.942,206.3819s-9.2198-4.4702-16.2922-1.0433c-7.0723,3.4269-9.8196,8.6734-8.7743,12.7534s5.6944,18.7104,5.6944,18.7104l-.8135,5.491,16.5757,3.5276,.0522-3.8692s6.28272-.7829,7.50191-5.5242c.62959-2.4484,2.73591-6.7344,2.84477-9.3471,.13547-3.2512-1.76105-6.2314-1.76105-6.2314,0,0,1.1282-9.8333-5.02793-14.4672Z" style="fill:#b2b2b2; stroke:#263238; stroke-linecap:round; stroke-linejoin:round;"></path><path d="M114.942,206.3818s-9.2198-4.4701-16.2922-1.0432c-7.0723,3.4269-9.8196,8.6734-8.7743,12.7534,.7539,2.9424,3.6304,12.2938,5.2808,15.5014,.3997-.1194,.7745-.3387,1.1017-.6987,2.2689-2.4967,2.3778-9.5477,2.605-10.599,.2272-1.0514-1.8717-3.7059-1.0724-6.6774,.7994-2.9715,3.2873-7.9362,10.4801-9.2115,4.8649-.8626,7.64279,.9155,8.93506,2.1582-.61672-.7568-1.35089-1.496-2.26376-2.1832Z" style="fill:#263238; stroke:#263238; stroke-linecap:round; stroke-linejoin:round;"></path><path d="M100.4957,224.8015s-3.0713-6.1696-6.0069-4.0511c-2.9354,2.1186,.5694,7.556,1.714,8.6292,1.1446,1.0733,3.4972-.896,3.4972-.896" style="fill:#b2b2b2; stroke:#263238; stroke-linecap:round; stroke-linejoin:round;"></path><path d="M111.6391,221.6711c.0636,.7936-.2525,1.4664-.7061,1.5027-.4535,.0364-.8727-.5776-.9362-1.3713-.0635-.7936,.2526-1.4664,.7061-1.5027,.4536-.0363,.8727,.5776,.9362,1.3713Z" style="fill:#263238;"></path><path d="M118.07342,221.7974c.06355,.7936-.2526,1.4665-.70614,1.5028-.45345,.0363-.87266-.5777-.93621-1.3713-.06353-.7937,.2526-1.4665,.70614-1.5028,.45354-.0364,.87266,.5776,.93621,1.3713Z" style="fill:#263238;"></path><path d="M115.88101,219.1086s-.99351,3.297,.58449,5.7451" style="fill:none; stroke:#263238; stroke-linecap:round; stroke-linejoin:round;"></path><path d="M112.078,217.2609s-3.036-2.2012-5.3061,1.8032" style="fill:none; stroke:#263238; stroke-linecap:round; stroke-linejoin:round; stroke-width:2px;"></path><path d="M116.15932,217.3023s2.05625-2.365,3.40216,1.1567" style="fill:none; stroke:#263238; stroke-linecap:round; stroke-linejoin:round; stroke-width:2px;"></path><path d="M117.38037,226.6844c-.27093,.6773-1.08372,1.2192-2.57387,1.3547-1.4901,.1354-3.6575-.1355-3.3866-.8128" style="fill:none; stroke:#263238; stroke-linecap:round; stroke-linejoin:round;"></path><path d="M116.04144,231.6863s-4.74134,2.303-7.45064-1.8965" style="fill:none; stroke:#263238; stroke-linecap:round; stroke-linejoin:round;"></path></g></g><polygon points="94.1491 247.4412 90.8692 281.5158 105.0821 283.338 105.5441 250.6089 94.1491 247.4412" style="fill:#92E3A9; stroke:#263238; stroke-linecap:round; stroke-linejoin:round;"></polygon><path d="M92.9179,244.1838s-1.6324,4.482,.2115,5.6345c1.844,1.1524,15.3686,3.2539,19.5239,3.2539,5.89783,0,3.47876-2.361,3.95456-5.4597,.72303-4.7089-1.65786-4.4372-3.04086-4.6677-1.383-.2304-17.8895-3.109-18.7906-3.3038-.9012-.1948-1.8585,1.0325-1.8585,4.5428Z" style="fill:#92E3A9; stroke:#263238; stroke-linecap:round; stroke-linejoin:round;"></path><path d="M86.7836,260.6006s4.9308,37.7208,5.5455,43.2527c.6145,5.5319-1.2294,25.5082-1.2294,25.5082" style="fill:none; stroke:#263238; stroke-linejoin:round; stroke-width:2px;"></path><g><path d="M86.4898,303.2387l3.6879-5.2246,5.8393-.3073s2.1512,.922,2.1512,1.844-.9219,2.1512-.9219,2.1512c0,0,1.8439,6.1466,0,7.6832-1.844,1.5367-3.9953,3.0733-7.3759,3.9953s-5.8392,.922-5.8392,.922l-1.2293-9.8345,3.6879-1.2293Z" style="fill:#b2b2b2; stroke:#263238; stroke-linecap:round; stroke-linejoin:round;"></path><path d="M80.0837,253.8142c-1.2293,.3074-5.2246,2.4586-7.0686,4.9173-1.8439,2.4585-17.5653,51.2684-18.4873,54.9563s2.766,7.0686,9.2198,7.0686,21.8202-3.0734,21.8202-3.0734l.922-14.4443-11.0638,.3073,6.1466-20.2836" style="fill:#fff; stroke:#263238; stroke-linecap:round; stroke-linejoin:round;"></path><line x1="75.426" y1="303.546" x2="64.6696" y2="303.8533" style="fill:#fff; stroke:#263238; stroke-linecap:round; stroke-linejoin:round;"></line></g><g><path d="M60.6743,325.0589l30.7328,1.8439s1.2292,29.5034,1.5365,34.4207c.3074,4.9172-1.5365,6.4539-6.1464,7.6832s-24.8935-1.2293-28.5815-3.3807c-3.6879-2.1512,2.4586-40.5671,2.4586-40.5671Z" style="fill:#8c8c8c; stroke:#263238; stroke-linecap:round; stroke-linejoin:round;"></path><path d="M60.6743,325.0589s0,19.669,8.9125,21.5129c8.9125,1.844,17.2104-19.3616,17.2104-19.3616l-26.1229-2.1513Z" style="fill:#8c8c8c; stroke:#263238; stroke-linecap:round; stroke-linejoin:round;"></path><path d="M92.9436,361.3234c-.3073-4.9172-1.5365-34.4206-1.5365-34.4206l-6.5963-.3957-.165,.3957s-3.9952,38.416-2.7659,40.2599c1.2293,1.844,1.2293,1.2293,4.9173,1.844,4.6099-1.2294,6.4538-2.766,6.1464-7.6833Z" style="fill:#8c8c8c; stroke:#263238; stroke-linecap:round; stroke-linejoin:round;"></path></g></g></g></g></svg>
